<?xml version="1.0" encoding="UTF-8"?>
<svg version="1.1" xmlns="http://www.w3.org/2000/svg" width="800" height="600">
<path d="M0 0 C3.69865097 0.00848871 7.39573911 -0.020351 11.09423828 -0.05200195 C32.73738193 -0.11631943 54.25945344 2.05910121 75.22314453 7.63354492 C76.36380371 7.9297876 77.50446289 8.22603027 78.6796875 8.53125 C138.23256987 24.43089305 194.64684413 58.69414657 233.09814453 107.44604492 C234.07676557 108.64807242 235.0573477 109.84850511 236.03955078 111.04760742 C242.1864314 118.57906008 247.92492689 126.20030902 253.09814453 134.44604492 C253.73018799 135.44958008 253.73018799 135.44958008 254.375 136.47338867 C284.61289597 184.64792794 302.0088908 239.00196007 301.61962891 296.15234375 C301.59816977 299.8791621 301.61959257 303.6040494 301.64501953 307.33081055 C301.6948241 350.3767926 291.30993867 393.87195297 272.09814453 432.44604492 C271.40567627 433.84741699 271.40567627 433.84741699 270.69921875 435.27709961 C264.91285659 446.90327763 258.85025383 458.15151255 251.31152344 468.73852539 C250.07053332 470.48490062 248.85456869 472.24685671 247.64111328 474.01245117 C241.93360251 482.24562832 235.7372959 489.94338139 229.09814453 497.44604492 C228.11551636 498.55894897 228.11551636 498.55894897 227.11303711 499.69433594 C214.24316895 514.1423035 200.76175101 528.03286432 185.09814453 539.44604492 C183.65181641 540.5675293 183.65181641 540.5675293 182.17626953 541.71166992 C173.8305332 548.16269854 165.02946385 553.84657022 156.09814453 559.44604492 C155.12619141 560.0622168 154.15423828 560.67838867 153.15283203 561.31323242 C124.38012008 578.84529306 91.57705824 589.80434616 58.66064453 596.25854492 C57.66822754 596.45351563 56.67581055 596.64848633 55.65332031 596.84936523 C38.58161656 600.01213473 21.80062631 600.82033205 4.47314453 600.75854492 C3.41232666 600.75672211 2.35150879 600.75489929 1.25854492 600.75302124 C-14.00726382 600.70883135 -28.86899241 600.32509661 -43.90185547 597.44604492 C-44.85705078 597.27443848 -45.81224609 597.10283203 -46.79638672 596.92602539 C-96.76365522 587.86095187 -142.33394175 567.22418684 -181.90185547 535.44604492 C-183.30757812 534.34776367 -183.30757812 534.34776367 -184.74169922 533.22729492 C-192.68573282 526.79690767 -199.91311371 519.64689905 -207.15185547 512.44604492 C-207.66559723 511.93757019 -208.17933899 511.42909546 -208.70864868 510.9052124 C-215.57657026 504.09173175 -221.90721886 497.05653257 -227.90185547 489.44604492 C-228.77107577 488.37396683 -229.64075089 487.30225704 -230.51123047 486.23120117 C-254.975734 455.1148527 -271.06294788 419.9422635 -282.90185547 382.44604492 C-278.21141165 380.91139328 -274.94249786 382.76605857 -270.61669922 384.65307617 C-269.78473022 385.00512115 -268.95276123 385.35716614 -268.09558105 385.71987915 C-265.33895339 386.88903733 -262.58934195 388.07386038 -259.83935547 389.25854492 C-257.91090619 390.07947696 -255.9819429 390.89920246 -254.05249023 391.71777344 C-250.02632945 393.42692982 -246.0024614 395.14133307 -241.97998047 396.85913086 C-234.27635194 400.14403139 -226.54904301 403.37149809 -218.81884766 406.59326172 C-215.18100515 408.11026739 -211.54936305 409.64084949 -207.92236328 411.18359375 C-200.2201925 414.4519322 -192.54339809 417.64618372 -184.63623047 420.38745117 C-167.39179893 426.52983884 -167.39179893 426.52983884 -164.21826172 432.69213867 C-162.75794727 436.49239793 -161.9757161 440.32415905 -161.32080078 444.33227539 C-159.49072043 453.56586263 -153.026986 461.60868991 -146.90185547 468.44604492 C-146.15033203 469.29166992 -145.39880859 470.13729492 -144.62451172 471.00854492 C-130.05270411 486.50142303 -109.42350669 495.15979076 -88.29931641 495.84887695 C-64.76602166 496.14993352 -43.78758118 488.04124759 -26.71435547 471.63354492 C-14.24121081 458.67316805 -4.05263157 440.82490917 -3.74560547 422.43823242 C-3.42639421 408.38111461 -3.42639421 408.38111461 0.92236328 404.18432617 C4.04794796 401.7211918 7.43189948 399.72917676 10.88476562 397.76196289 C14.7485159 395.46485127 18.3004108 392.7420821 21.91064453 390.07104492 C23.43124935 388.97126928 24.95339898 387.87362657 26.47705078 386.77807617 C29.5699142 384.54867261 32.66106586 382.31693326 35.75048828 380.08276367 C46.2045737 372.52312827 56.66260289 364.96925328 67.21533203 357.54760742 C74.98852366 352.08033022 82.7219068 346.57047576 90.36547852 340.92285156 C98.06202231 335.2379166 98.06202231 335.2379166 103.37548828 334.80541992 C104.43646729 334.70793457 105.49744629 334.61044922 106.59057617 334.51000977 C107.72744873 334.40640137 108.86432129 334.30279297 110.03564453 334.19604492 C134.034133 331.67093333 154.43475243 323.89533621 173.09814453 308.44604492 C174.38785156 307.4019043 174.38785156 307.4019043 175.70361328 306.33666992 C196.187654 288.93317486 209.91830396 261.06162924 212.09814453 234.44604492 C213.77281496 200.58121136 204.74074498 171.70722561 182.41064453 145.88354492 C162.35726376 124.39121928 133.90260189 112.3957011 104.71386719 111.36157227 C73.00362236 110.94701882 45.63030336 123.40429409 22.69189453 144.79370117 C7.20132151 160.63421183 -6.82470238 186.00784297 -7.02685547 208.54370117 C-7.27495672 224.38346054 -13.03226742 233.14986295 -22.62451172 245.45581055 C-26.45826054 250.48966085 -29.9435541 255.7534724 -33.46435547 261.00854492 C-34.88372217 263.10311281 -36.30428823 265.19686848 -37.72607422 267.28979492 C-38.42007324 268.31331055 -39.11407227 269.33682617 -39.82910156 270.39135742 C-48.69036757 283.45050468 -57.59466497 296.48019139 -66.54736328 309.47680664 C-68.03022059 311.63266949 -69.50926546 313.79111678 -70.98779297 315.94995117 C-71.49600586 316.69132324 -72.00421875 317.43269531 -72.52783203 318.1965332 C-73.50716349 319.62533633 -74.4857135 321.05467549 -75.46337891 322.48461914 C-78.7895295 327.33371895 -78.7895295 327.33371895 -79.90185547 328.44604492 C-81.24623389 328.63673954 -82.59897806 328.76930863 -83.95263672 328.87573242 C-84.79012451 328.94679199 -85.6276123 329.01785156 -86.49047852 329.09106445 C-87.38935791 329.16695801 -88.2882373 329.24285156 -89.21435547 329.32104492 C-102.80078655 330.61840394 -120.72259618 333.26678564 -130.90185547 343.44604492 C-135.87433117 343.10905277 -140.18829868 341.26133651 -144.71044922 339.30541992 C-145.83554398 338.82822258 -145.83554398 338.82822258 -146.98336792 338.34138489 C-149.43792021 337.29883392 -151.88854824 336.24736555 -154.33935547 335.19604492 C-156.06390481 334.46217541 -157.78876234 333.72902975 -159.51391602 332.99658203 C-163.00408097 331.51416107 -166.49301558 330.02890452 -169.98095703 328.54125977 C-176.71467976 325.67133771 -183.46305796 322.83682168 -190.21435547 320.00854492 C-191.45939293 319.48633208 -192.70442872 318.96411523 -193.94946289 318.44189453 C-205.35852942 313.65982582 -216.78868135 308.92875103 -228.21820068 304.1958313 C-242.43692734 298.3070753 -256.64234276 292.38695559 -270.83935547 286.44604492 C-271.78943481 286.04874176 -272.73951416 285.6514386 -273.71838379 285.24209595 C-276.39315565 284.12337329 -279.06750779 283.00365422 -281.74169922 281.88354492 C-282.54173874 281.54896774 -283.34177826 281.21439056 -284.1660614 280.86967468 C-289.67114789 278.56139871 -289.67114789 278.56139871 -291.90185547 277.44604492 C-293.92813411 242.32388177 -280.96557705 203.72598469 -265.90185547 172.44604492 C-265.57717285 171.76638672 -265.25249023 171.08672852 -264.91796875 170.38647461 C-262.66402523 165.69459218 -260.31993502 161.05536512 -257.90185547 156.44604492 C-257.56605469 155.80489746 -257.23025391 155.16375 -256.88427734 154.50317383 C-246.38070341 134.66696518 -233.13383368 116.17492248 -217.93701172 99.66479492 C-216.10641127 97.66905393 -214.34349064 95.63373881 -212.58935547 93.57104492 C-205.34787426 85.26860251 -197.37026815 77.48656164 -188.90185547 70.44604492 C-188.38768066 70.00744141 -187.87350586 69.56883789 -187.34375 69.11694336 C-171.52690811 55.64284709 -154.30511585 44.09211879 -135.90185547 34.44604492 C-135.25974121 34.10911621 -134.61762695 33.7721875 -133.95605469 33.42504883 C-129.31312166 31.00952339 -124.62046883 28.70944482 -119.90185547 26.44604492 C-119.24088867 26.1228125 -118.57992187 25.79958008 -117.89892578 25.46655273 C-99.54026452 16.54898165 -79.8996635 10.56352581 -60.02685547 6.07104492 C-59.03242432 5.84465332 -58.03799316 5.61826172 -57.01342773 5.38500977 C-53.65232583 4.66675872 -50.28735927 4.03956756 -46.90185547 3.44604492 C-45.78384552 3.24958878 -45.78384552 3.24958878 -44.64324951 3.04916382 C-29.75857577 0.51760164 -15.08098649 -0.05248144 0 0 Z " fill="#1A1917" transform="translate(395.90185546875,-0.446044921875)"/>
<path d="M0 0 C15.95384523 13.4119761 25.67867389 31.85671905 27.59033203 52.61621094 C29.15184459 72.87289675 23.54028972 91.81995744 10.80078125 107.75 C8.61080527 110.25719763 6.34957005 112.64231399 4 115 C2.98873047 116.04607422 2.98873047 116.04607422 1.95703125 117.11328125 C-12.00427091 130.60309478 -31.50729296 136.47100475 -50.609375 136.20703125 C-72.4578101 134.87296782 -90.25002498 125.67579442 -105.42578125 109.98046875 C-119.28512484 93.93391464 -125.13726502 73.20338993 -123.75390625 52.27734375 C-121.66093074 35.55206159 -115.23793657 20.58565958 -104 8 C-103.32195312 7.22785156 -102.64390625 6.45570313 -101.9453125 5.66015625 C-74.71835531 -23.5115836 -30.56756081 -23.21302723 0 0 Z M-89.7421875 22.2578125 C-100.80770945 35.69725266 -103.92911598 49.9145894 -103 67 C-100.75261519 82.71264804 -92.5507602 95.42761156 -80.265625 105.16796875 C-67.61680521 113.74065152 -52.90271237 116.73611874 -37.83984375 114.5390625 C-21.8640444 110.96082022 -8.84998029 101.79422948 0 88 C7.46184213 74.12811796 9.77322527 58.30215874 5.375 43 C-0.51729822 26.72898702 -9.92793682 15.62295098 -25.625 8.1875 C-47.93190572 -1.86776673 -73.21034302 4.769141 -89.7421875 22.2578125 Z " fill="#1A1917" transform="translate(546,163)"/>
<path d="M0 0 C1.00442139 0.00684814 2.00884277 0.01369629 3.04370117 0.02075195 C10.88513521 0.18985484 17.39083527 1.25822011 24.625 4.4375 C25.49898438 4.79972656 26.37296875 5.16195313 27.2734375 5.53515625 C43.82514187 13.04708362 53.63351417 26.23948878 60.625 42.4375 C61.01042969 43.32953125 61.39585937 44.2215625 61.79296875 45.140625 C66.63872174 59.2456337 65.0214993 77.86313659 58.79541016 91.21679688 C50.52099731 108.02573962 37.5928766 120.29199733 19.82421875 126.5078125 C2.25238233 131.61415813 -15.19570989 130.03947558 -31.2578125 121.31640625 C-42.28559167 114.66933635 -52.21620626 105.4660442 -57.375 93.4375 C-57.375 92.7775 -57.375 92.1175 -57.375 91.4375 C-53.28270294 92.09757862 -49.77546834 93.40249283 -45.96484375 95.01953125 C-45.35669327 95.27498215 -44.74854279 95.53043304 -44.1219635 95.79362488 C-42.18358454 96.60801579 -40.24777532 97.42826349 -38.3125 98.25 C-14.60460663 109.01656483 -14.60460663 109.01656483 10.625 107.4375 C23.8971731 101.78976676 33.6149763 95.19410666 39.4765625 81.43920898 C41.62637816 75.64046514 42.16790616 70.2814699 42.125 64.125 C42.12145508 63.20581787 42.11791016 62.28663574 42.11425781 61.33959961 C41.93291213 53.8866863 40.44215584 47.91244629 36.625 41.4375 C36.26792969 40.81875 35.91085937 40.2 35.54296875 39.5625 C34.64775677 38.13586736 33.64078281 36.78095468 32.625 35.4375 C32.068125 34.6125 31.51125 33.7875 30.9375 32.9375 C24.63584567 26.12490072 16.01911729 22.57151224 7.625 19 C6.53517822 18.52844482 5.44535645 18.05688965 4.32250977 17.57104492 C-4.53281158 13.75412976 -13.4312272 10.04207418 -22.375 6.4375 C-22.375 5.4475 -22.375 4.4575 -22.375 3.4375 C-14.81228108 1.0218104 -7.93207689 -0.08377774 0 0 Z " fill="#191917" transform="translate(310.375,347.5625)"/>
</svg>
